<svg width="367" height="462" viewBox="0 0 367 462" fill="none" xmlns="http://www.w3.org/2000/svg">
<path d="M309.153 255.056C302.653 298.056 82.1526 293.556 76.6526 255.056C60.8622 253.781 41.6527 274.556 69.6526 289.056C24.3667 349.903 33.1224 383.173 107.653 441.056L113.653 450.056C178.629 466.433 213.802 464.041 271.153 450.056L278.153 441.056C349.492 382.603 357.998 349.439 314.153 289.556C339.653 276.056 330.373 258.801 309.153 255.056Z" fill="#83461A" stroke="#83461A"/>
<path d="M270 301.5C349 311 296 454 174 460C212.347 461.626 233.397 459.633 270 450L277 441C346.416 382.686 359.357 349.679 315 290C302.657 295.823 292.499 298.263 270 301.5Z" fill="#724018" stroke="#724018"/>
<path d="M183 243C151.682 243.241 129.539 244.992 100 250C100.783 266.507 115.882 273.088 183 277.5V243Z" fill="#724018" stroke="#724018"/>
<path d="M161 307.5C122 314 87.2135 307.736 69 293V289C95.1291 298.69 118.198 302.005 161 307.5Z" fill="#724018" stroke="#724018"/>
<path d="M202 208V276.5C220.5 279 234.5 275.5 240.5 272V208H202Z" fill="#639D46" stroke="#639D46"/>
<path d="M256.75 175.671V269C270 271.5 293 260 295.75 254V175.671H256.75Z" fill="#639D46" stroke="#639D46"/>
<path d="M312 135V244C325.232 249.155 331.607 253.538 337.5 263H350V135H312Z" fill="#639D46" stroke="#639D46"/>
<path d="M123.5 217V211C229.987 173.34 266.173 141.767 320.703 81L304.635 67.5L365.5 41L353.814 106.5L335.311 94.5C271.882 161.76 230.135 193.243 123.5 217Z" fill="#639D46" stroke="#639D46"/>
<path fill-rule="evenodd" clip-rule="evenodd" d="M95.6538 215.542C101.904 200.755 108.879 184.253 102 164C76.5203 177.229 68.1448 189.928 75.5001 232.5C46.295 199.468 70.5644 174.48 72.5 175C92.0362 156.731 99.5828 144.84 104.5 119.5C71.0218 122.562 58.3162 132.9 53 176C48.0498 149.848 47.25 136.981 59 126C64.4024 123.307 69.4237 121.043 74.0937 118.938C95.474 109.298 109.491 102.978 119 74C89.6091 72.2437 75.0588 80.371 54 118L68 79C113.258 56.1334 126.958 38.4191 137.5 1C81.0462 5.37927 62.2941 19.3753 62 74L51 103.5C52.7949 67.938 50.4076 53.1608 35.5 43C17.3615 67.004 17.7032 84.1709 43 123.5L42 152C37.2855 122.827 30.4272 110.734 6.00001 101.5C0.955256 135.281 10.0028 150.082 39 172C42.8199 175.749 44.5863 181.656 46.989 189.69C48.5102 194.777 50.2863 200.716 53 207.5C37 180 25.3808 166.596 1 166.5C2.67878 197.778 15 213 61.5 228C77.8689 251.388 87.5 260 101 264.5C81.8002 248.318 88.2137 233.145 95.6538 215.542ZM67 72.528C67 70.8222 67.7635 68.7905 69.0783 66.5422C68.2686 68.5207 67.5683 70.52 67 72.528ZM69.0783 66.5422C73.4723 59.0284 84.0239 49.0953 92.8126 40.8216C100.665 33.4293 107.111 27.3616 106.5 25.528C105.114 21.369 78.9552 42.4088 69.0783 66.5422Z" fill="#F7AB20"/>
<path d="M69.0783 66.5422C67.7635 68.7905 67 70.8222 67 72.528C67.5683 70.52 68.2686 68.5207 69.0783 66.5422ZM69.0783 66.5422C73.4723 59.0284 84.0239 49.0953 92.8126 40.8216C100.665 33.4293 107.111 27.3616 106.5 25.528C105.114 21.369 78.9552 42.4088 69.0783 66.5422ZM102 164C108.879 184.253 101.904 200.755 95.6538 215.542C88.2137 233.145 81.8002 248.318 101 264.5C87.5 260 77.8689 251.388 61.5 228C15 213 2.67878 197.778 1 166.5C25.3808 166.596 37 180 53 207.5C50.2863 200.716 48.5102 194.777 46.989 189.69C44.5863 181.656 42.8199 175.749 39 172C10.0028 150.082 0.955256 135.281 6.00001 101.5C30.4272 110.734 37.2855 122.827 42 152L43 123.5C17.7032 84.1709 17.3615 67.004 35.5 43C50.4076 53.1608 52.7949 67.938 51 103.5L62 74C62.2941 19.3753 81.0462 5.37927 137.5 1C126.958 38.4191 113.258 56.1334 68 79L54 118C75.0588 80.371 89.6091 72.2437 119 74C109.491 102.978 95.474 109.298 74.0937 118.938C69.4237 121.043 64.4024 123.307 59 126C47.25 136.981 48.0498 149.848 53 176C58.3162 132.9 71.0218 122.562 104.5 119.5C99.5828 144.84 92.0362 156.731 72.5 175C70.5644 174.48 46.295 199.468 75.5001 232.5C68.1448 189.928 76.5203 177.229 102 164Z" stroke="#F7AB20"/>
</svg>
